<?xml version="1.0" encoding="UTF-8"?>
<svg id="Layer_1" data-name="Layer 1" xmlns="http://www.w3.org/2000/svg" viewBox="0 0 171.38 200">
  <path d="M62.19,82.08c-.02.4,1.01.42,1.34.47,6.88,1.06,14.11,2.75,14.9,11.15.81,8.66-.43,20.27,1.68,28.57.09.36-.02.71.42.97,10.46-16.53,26.83-38.71,49.45-32.63,24.85,6.68,35.89,47.89,39.46,70.08,1.52,9.45,3.22,26.77.52,35.74-2.57,8.52-7.78-.42-9.72-4.13.46-.6.47.03.64.22,1.35,1.46,4.2,5.99,6.46,5.21,1.25-.43,1.08-5.87,1.02-7.11-1.02-18.69-12.43-50.41-22.57-66.23-10.38-16.18-22.71-23.48-37.94-7.17-8.15,8.72-12.07,20.35-19.31,28.87-8.79,10.34-19.21,6-23.75-5.4-5.26-13.22-5.2-41.2-4.54-55.66.03-.62.13-2.55-.28-2.83l-22.3.17c-.66-.01-1.28-.29-1.94-.3-7.41-.17-14.75-.2-22.14-.83-2.42-.21-9.96-.77-11.61-1.83-3.16-2.03-2.14-5.92.41-7.97.35-.28,2.22-1.6,2.38-.84-3.11,1.14-5.28,7.03-.7,7.57,4.04.48,9.27-.93,13.45-.57,14.29-1.2,28.58-2.7,42.65-5.39.65-.56.28-6.33.34-7.65.63-13.39,1.51-27.03,3.1-40.33,1.63-13.64,2.04-26.57,19.95-23.87,22.71,3.42,59.38,33.17,44.81,58.66-8.45,14.78-31.41,19.39-47.01,21.35-6.35.8-12.78,1.1-19.15,1.72ZM79.27,68.07c14.22-3.98,45.21-13.06,28.28-32.91-6.04-7.08-15.49-12.47-24.08-15.84-1.47,11.96-2.8,23.97-3.64,36-.07,1.02.06,2.05,0,3.08-.2,3.21-.9,6.41-.56,9.67Z"/>
</svg>